<svg xmlns="http://www.w3.org/2000/svg" xmlns:xlink="http://www.w3.org/1999/xlink" xmlns:lucid="lucid" width="1480.31" height="566.93"><g transform="translate(0 0)" lucid:page-tab-id="NYXZIa_1KuHM"><path d="M0 0h1480.3v566.93H0z" fill="#fff"/><path d="M31.5 314.96h188.97v63H31.5z" stroke="#5e5e5e" stroke-width="5" fill="#ff8f80"/><use xlink:href="#a" transform="matrix(1,0,0,1,34.49606299212596,317.9606299212598) translate(48.632716049382765 37.347222222222186)"/><path d="M31.5 377.95h188.97v63H31.5z" stroke="#5e5e5e" stroke-width="5" fill="#b2b2b2"/><use xlink:href="#b" transform="matrix(1,0,0,1,34.49606299212596,380.9527559055117) translate(49.62962962962968 37.347222222222186)"/><path d="M31.5 440.94h188.97v63H31.5z" stroke="#5e5e5e" stroke-width="5" fill="#b2b2b2"/><use xlink:href="#c" transform="matrix(1,0,0,1,34.49606299212596,443.94488188976374) translate(34.938271604938336 37.347222222222186)"/><path d="M31.5 503.94h188.97v63H31.5z" stroke="#5e5e5e" stroke-width="5" fill="#b2b2b2"/><use xlink:href="#d" transform="matrix(1,0,0,1,34.49606299212596,506.93700787401576) translate(42.07407407407413 37.347222222222186)"/><path d="M125.98 500.44v-22c0-3.3-2.68-6-6-6H93.35c-3.3 0-6-2.7-6-6v-4.5" stroke="#000" stroke-opacity="0" stroke-width="2" fill="none"/><path d="M87.35 446.68l4.63 14.27H82.7z" stroke="#000" stroke-opacity="0" stroke-width="2" fill-opacity="0"/><path d="M0 314.96h31.5v251.97H0z" stroke="#333" stroke-width="5" fill="#834187"/><use xlink:href="#e" transform="matrix(-1.8369701987210297e-16,-1,1,-1.8369701987210297e-16,5,561.9291338582677) translate(77.62962962962963 21.333333333333332)"/><path d="M0 94.5h220.47v94.48H0z" stroke="#333" stroke-width="5" fill="#c92d39"/><use xlink:href="#f" transform="matrix(1,0,0,1,5.000000000000014,99.48818897637794) translate(49.35185185185185 47.89583333333333)"/><path d="M125.63 273.94l1.1 7.5.88 8.33.63 9.95.2 10.2-5 .1-.2-10.1-.6-9.73-.85-8.13-1.08-7.3-.8-4.15h5.1zm-11.2-52.08l1.1 7.3.78 4.13h-5.08l-.63-3.3-1.12-7.5-.62-5.94 4.97-.52z" fill="#333"/><path d="M128.48 312.46h-5l-.05-2.5 5-.1zM115.87 213.6l-9.27.42 4-14.46z" fill="#333"/><path d="M119.4 215.95l-16.12.72 6.96-25.2zm-9.47-4.58l2.4-.1-1.37-3.63z" fill="#333"/><use xlink:href="#g" transform="matrix(1,0,0,1,100.0499230852515,233.29009169262181) translate(0.004999999999999005 24.888888888888886)"/><path d="M0 6c0-3.3 2.7-6 6-6h208.47c3.32 0 6 2.7 6 6v82.5c0 3.3-2.68 6-6 6H6c-3.3 0-6-2.7-6-6z" stroke="#000" stroke-opacity="0" stroke-width="5" fill="#fff" fill-opacity="0"/><use xlink:href="#h" transform="matrix(1,0,0,1,5,5.000000000000007) translate(0 28.444444444444436)"/><path d="M346.46 314.96h188.97v63H346.46z" stroke="#5e5e5e" stroke-width="5" fill="#ff8f80"/><use xlink:href="#a" transform="matrix(1,0,0,1,349.4566929133857,317.9606299212599) translate(48.632716049382765 37.347222222222186)"/><path d="M346.46 377.95h188.97v63H346.46z" stroke="#5e5e5e" stroke-width="5" fill="#b2b2b2"/><use xlink:href="#b" transform="matrix(1,0,0,1,349.4566929133857,380.9527559055118) translate(49.62962962962968 37.347222222222186)"/><path d="M346.46 440.94h188.97v63H346.46z" stroke="#5e5e5e" stroke-width="5" fill="#b2b2b2"/><use xlink:href="#c" transform="matrix(1,0,0,1,349.4566929133857,443.9448818897638) translate(34.938271604938336 37.347222222222186)"/><path d="M346.46 503.94h188.97v63H346.46z" stroke="#5e5e5e" stroke-width="5" fill="#b2b2b2"/><use xlink:href="#d" transform="matrix(1,0,0,1,349.4566929133857,506.9370078740159) translate(42.07407407407413 37.347222222222186)"/><path d="M440.94 500.44v-22c0-3.3-2.68-6-6-6H408.3c-3.3 0-6-2.7-6-6v-4.5" stroke="#000" stroke-opacity="0" stroke-width="2" fill="none"/><path d="M402.3 446.68l4.65 14.27h-9.28z" stroke="#000" stroke-opacity="0" stroke-width="2" fill-opacity="0"/><path d="M314.96 314.96h31.5v251.97h-31.5z" stroke="#333" stroke-width="5" fill="#834187"/><use xlink:href="#e" transform="matrix(-1.8369701987210297e-16,-1,1,-1.8369701987210297e-16,319.96062992125985,561.9291338582678) translate(77.62962962962963 21.333333333333332)"/><path d="M314.96 94.5h220.47v94.48H314.96z" stroke="#333" stroke-width="5" fill="#c92d39"/><use xlink:href="#f" transform="matrix(1,0,0,1,319.96062992125974,99.48818897637808) translate(49.35185185185185 47.89583333333333)"/><path d="M314.96 6c0-3.3 2.7-6 6-6h208.47c3.32 0 6 2.7 6 6v82.5c0 3.3-2.68 6-6 6H320.96c-3.3 0-6-2.7-6-6z" stroke="#000" stroke-opacity="0" stroke-width="5" fill="#fff" fill-opacity="0"/><use xlink:href="#i" transform="matrix(1,0,0,1,319.96062992125974,5.000000000000121) translate(0 28.444444444444436)"/><path d="M440.6 273.94l1.1 7.5.62 5.94-4.97.52-.6-5.83-1.1-7.3-.78-4.12h5.1zM427.94 204l.6 9.75.85 8.1 1.08 7.32.8 4.14h-5.1l-.63-3.3-1.1-7.5-.88-8.34-.62-9.95-.2-10.17 5-.1z" fill="#333"/><path d="M427.75 194l-5 .1-.05-2.62h5zM440.58 304.38l-5.26-14.05 9.26-.4z" fill="#333"/><path d="M440.94 312.46L431.77 288l16.13-.73zm-2.07-19.78l1.35 3.62 1.03-3.73z" fill="#333"/><use xlink:href="#j" transform="matrix(1,0,0,1,396.8163644715566,233.31358287134512) translate(0.005000000000002558 24.88888888888888)"/><path d="M661.42 314.96H850.4v63H661.4z" stroke="#5e5e5e" stroke-width="5" fill="#b2b2b2"/><use xlink:href="#a" transform="matrix(1,0,0,1,664.417322834645,317.96062992126) translate(48.632716049382765 37.347222222222186)"/><path d="M661.42 377.95H850.4v63H661.4z" stroke="#5e5e5e" stroke-width="5" fill="#ffbbb1"/><use xlink:href="#b" transform="matrix(1,0,0,1,664.417322834645,380.95275590551194) translate(49.62962962962968 37.347222222222186)"/><path d="M661.42 440.94H850.4v63H661.4z" stroke="#5e5e5e" stroke-width="5" fill="#b2b2b2"/><use xlink:href="#c" transform="matrix(1,0,0,1,664.417322834645,443.94488188976385) translate(34.938271604938336 37.347222222222186)"/><path d="M661.42 503.94H850.4v63H661.4z" stroke="#5e5e5e" stroke-width="5" fill="#b2b2b2"/><use xlink:href="#d" transform="matrix(1,0,0,1,664.417322834645,506.937007874016) translate(42.07407407407413 37.347222222222186)"/><path d="M755.9 500.44v-22c0-3.3-2.68-6-6-6h-26.63c-3.3 0-6-2.7-6-6v-4.5" stroke="#000" stroke-opacity="0" stroke-width="2" fill="none"/><path d="M717.27 446.68l4.64 14.27h-9.26z" stroke="#000" stroke-opacity="0" stroke-width="2" fill-opacity="0"/><path d="M629.92 314.96h31.5v251.97h-31.5z" stroke="#333" stroke-width="5" fill="#834187"/><use xlink:href="#e" transform="matrix(-1.8369701987210297e-16,-1,1,-1.8369701987210297e-16,634.9212598425195,561.9291338582678) translate(77.62962962962963 21.333333333333332)"/><path d="M629.92 94.5H850.4v94.48H629.9z" stroke="#333" stroke-width="5" fill="#c92d39"/><use xlink:href="#f" transform="matrix(1,0,0,1,634.9212598425196,99.48818897637797) translate(49.35185185185185 47.89583333333333)"/><path d="M629.92 6c0-3.3 2.7-6 6-6H844.4c3.3 0 6 2.7 6 6v82.5c0 3.3-2.7 6-6 6H635.9c-3.3 0-6-2.7-6-6z" stroke="#000" stroke-opacity="0" stroke-width="5" fill="#fff" fill-opacity="0"/><use xlink:href="#k" transform="matrix(1,0,0,1,634.9212598425196,5) translate(0 28.444444444444436)"/><path d="M799.77 306.5l3.1 4.88 2.63 4.54 2.28 4.35 2 4.27 1.8 4.26 1.6 4.3 1.42 4.4 1.27 4.53 1.1 4.73.67 3.5-4.9.93-.65-3.4-1.07-4.52-1.2-4.34-1.38-4.2-1.52-4.1-1.7-4.06-1.93-4.08-2.18-4.17-2.52-4.36-3-4.7-3.74-5.4-1.35-1.66h6.3zM742.8 197.93l.36 5.9.57 5.45.75 5.06.9 4.77 1.07 4.52 1.2 4.34 1.37 4.18 1.53 4.1 1.7 4.07 1.93 4.08 2.18 4.17 2.52 4.36 3 4.7 3.75 5.42 1.38 1.8h-6.2l-3.1-4.44-3.1-4.9-2.62-4.53-2.28-4.34-2-4.27-1.8-4.27-1.6-4.3-1.43-4.4-1.26-4.53-1.1-4.73-.95-4.98-.78-5.28-.6-5.66-.38-6.1-.1-4.13 5-.1z" fill="#333"/><path d="M742.7 194l-5 .1-.04-2.62h5zM816.62 367.4l-5.84-13.82 9.24-.8z" fill="#333"/><path d="M817.32 375.45l-10.18-24.07 16.1-1.38zm-2.9-19.68l1.5 3.56.88-3.76z" fill="#333"/><use xlink:href="#l" transform="matrix(1,0,0,1,744.1527487183457,264.8805157717784) translate(0.005000000000002558 24.88888888888888)"/><path d="M976.38 314.96h188.97v63H976.38z" stroke="#5e5e5e" stroke-width="5" fill="#ff8f80"/><use xlink:href="#a" transform="matrix(1,0,0,1,979.3779527559053,317.96062992125985) translate(48.632716049382765 37.347222222222186)"/><path d="M976.38 377.95h188.97v63H976.38z" stroke="#5e5e5e" stroke-width="5" fill="#b2b2b2"/><use xlink:href="#b" transform="matrix(1,0,0,1,979.3779527559053,380.9527559055117) translate(49.62962962962968 37.347222222222186)"/><path d="M976.38 440.94h188.97v63H976.38z" stroke="#5e5e5e" stroke-width="5" fill="#b2b2b2"/><use xlink:href="#c" transform="matrix(1,0,0,1,979.3779527559053,443.9448818897637) translate(34.938271604938336 37.347222222222186)"/><path d="M976.38 503.94h188.97v63H976.38z" stroke="#5e5e5e" stroke-width="5" fill="#b2b2b2"/><use xlink:href="#d" transform="matrix(1,0,0,1,979.3779527559053,506.93700787401576) translate(42.07407407407413 37.347222222222186)"/><path d="M1070.87 500.44v-22c0-3.3-2.7-6-6-6h-26.64c-3.3 0-6-2.7-6-6v-4.5" stroke="#000" stroke-opacity="0" stroke-width="2" fill="none"/><path d="M1032.23 446.68l4.64 14.27h-9.27z" stroke="#000" stroke-opacity="0" stroke-width="2" fill-opacity="0"/><path d="M944.88 314.96h31.5v251.97h-31.5z" stroke="#333" stroke-width="5" fill="#834187"/><use xlink:href="#e" transform="matrix(-1.8369701987210297e-16,-1,1,-1.8369701987210297e-16,949.8818897637798,561.9291338582674) translate(77.62962962962963 21.333333333333332)"/><path d="M944.88 94.5h220.47v94.48H944.88z" stroke="#333" stroke-width="5" fill="#c92d39"/><use xlink:href="#f" transform="matrix(1,0,0,1,949.8818897637793,99.48818897637797) translate(49.35185185185185 47.89583333333333)"/><path d="M944.88 6c0-3.3 2.7-6 6-6h208.47c3.32 0 6 2.7 6 6v82.5c0 3.3-2.68 6-6 6H950.88c-3.3 0-6-2.7-6-6z" stroke="#000" stroke-opacity="0" stroke-width="5" fill="#fff" fill-opacity="0"/><use xlink:href="#m" transform="matrix(1,0,0,1,949.8818897637793,4.999999999999986) translate(0 28.444444444444436)"/><path d="M1070.5 273.94l1.12 7.5.62 5.94-4.97.52-.6-5.83-1.1-7.3-.77-4.12h5.1zM1057.88 204l.6 9.75.85 8.1 1.08 7.32.8 4.14h-5.1l-.63-3.3-1.1-7.5-.88-8.34-.63-9.95-.2-10.17 5-.1z" fill="#333"/><path d="M1057.67 194l-5 .1-.05-2.62h5zM1070.5 304.38l-5.26-14.05 9.26-.4z" fill="#333"/><path d="M1070.87 312.46L1061.7 288l16.12-.73zm-2.08-19.78l1.34 3.62 1.03-3.73z" fill="#333"/><use xlink:href="#n" transform="matrix(1,0,0,1,1027.6450317214833,233.31358287134512) translate(0.005000000000002558 24.88888888888888)"/><path d="M1291.34 314.96h188.97v63h-188.96z" stroke="#5e5e5e" stroke-width="5" fill="#ff8f80"/><use xlink:href="#o" transform="matrix(1,0,0,1,1294.338582677165,317.9606299212601) translate(26.648148148148223 37.347222222222186)"/><use xlink:href="#p" transform="matrix(1,0,0,1,1294.338582677165,317.9606299212601) translate(135.36419753086415 37.347222222222186)"/><path d="M1291.34 377.95h188.97v63h-188.96z" stroke="#5e5e5e" stroke-width="5" fill="#ffbbb1"/><use xlink:href="#q" transform="matrix(1,0,0,1,1294.338582677165,380.95275590551194) translate(27.64506172839514 37.347222222222186)"/><use xlink:href="#p" transform="matrix(1,0,0,1,1294.338582677165,380.95275590551194) translate(134.36728395061724 37.347222222222186)"/><path d="M1291.34 440.94h188.97v63h-188.96z" stroke="#5e5e5e" stroke-width="5" fill="#b2b2b2"/><use xlink:href="#c" transform="matrix(1,0,0,1,1294.338582677165,443.9448818897639) translate(34.938271604938336 37.347222222222186)"/><path d="M1291.34 503.94h188.97v63h-188.96z" stroke="#5e5e5e" stroke-width="5" fill="#b2b2b2"/><use xlink:href="#d" transform="matrix(1,0,0,1,1294.338582677165,506.937007874016) translate(42.07407407407413 37.347222222222186)"/><path d="M1385.83 500.44v-22c0-3.3-2.7-6-6-6h-26.64c-3.32 0-6-2.7-6-6v-4.5" stroke="#000" stroke-opacity="0" stroke-width="2" fill="none"/><path d="M1347.2 446.68l4.63 14.27h-9.27z" stroke="#000" stroke-opacity="0" stroke-width="2" fill-opacity="0"/><path d="M1259.84 94.5h220.47v94.48h-220.46z" stroke="#333" stroke-width="5" fill="#b2b2b2"/><use xlink:href="#f" transform="matrix(1,0,0,1,1264.8425196850392,99.48818897637797) translate(49.35185185185185 47.89583333333333)"/><path d="M1259.84 6c0-3.3 2.7-6 6-6h208.47c3.33 0 6 2.7 6 6v82.5c0 3.3-2.67 6-6 6h-208.46c-3.3 0-6-2.7-6-6z" stroke="#000" stroke-opacity="0" stroke-width="5" fill="#fff" fill-opacity="0"/><use xlink:href="#r" transform="matrix(1,0,0,1,1264.8425196850392,4.999999999999993) translate(0 28.444444444444436)"/><path d="M1259.84 314.96h31.5v251.97h-31.5z" stroke="#333" stroke-width="5" fill="#834187"/><g><use xlink:href="#e" transform="matrix(-1.8369701987210297e-16,-1,1,-1.8369701987210297e-16,1264.8425196850394,561.9291338582682) translate(77.62962962962963 21.333333333333332)"/></g><defs><path fill="#333" d="M67-125c0 53 21 87 73 88 37 1 54-22 65-47l45 17C233-25 199 4 140 4 58 4 20-42 15-125 8-235 124-281 211-232c18 10 29 29 36 50l-46 12c-8-25-30-41-62-41-52 0-71 34-72 86" id="s"/><path fill="#333" d="M230 0l2-204L168 0h-37L68-204 70 0H24v-248h70l56 185 57-185h69V0h-46" id="t"/><path fill="#333" d="M24-248c120-7 223 5 221 122C244-46 201 0 124 0H24v-248zM76-40c74 7 117-18 117-86 0-67-45-88-117-82v168" id="u"/><g id="a"><use transform="matrix(0.10493827160493814,0,0,0.10493827160493814,0,0)" xlink:href="#s"/><use transform="matrix(0.10493827160493814,0,0,0.10493827160493814,27.179012345678977,0)" xlink:href="#t"/><use transform="matrix(0.10493827160493814,0,0,0.10493827160493814,58.555555555555486,0)" xlink:href="#u"/></g><path fill="#333" d="M199 0l-22-63H83L61 0H9l90-248h61L250 0h-51zm-33-102l-36-108c-10 38-24 72-36 108h72" id="v"/><path fill="#333" d="M240-174c0 40-23 61-54 70L253 0h-59l-57-94H76V0H24v-248c93 4 217-23 216 74zM76-134c48-2 112 12 112-38 0-48-66-32-112-35v73" id="w"/><path fill="#333" d="M67-125c0 54 23 88 75 88 28 0 53-7 68-21v-34h-60v-39h108v91C232-14 192 4 140 4 58 4 20-42 15-125 8-236 126-280 215-234c19 10 29 26 37 47l-47 15c-11-23-29-39-63-39-53 1-75 33-75 86" id="x"/><g id="b"><use transform="matrix(0.10493827160493814,0,0,0.10493827160493814,0,0)" xlink:href="#v"/><use transform="matrix(0.10493827160493814,0,0,0.10493827160493814,27.179012345678977,0)" xlink:href="#w"/><use transform="matrix(0.10493827160493814,0,0,0.10493827160493814,54.358024691357954,0)" xlink:href="#x"/></g><path fill="#333" d="M140-251c80 0 125 45 125 126S219 4 139 4C58 4 15-44 15-125s44-126 125-126zm-1 214c52 0 73-35 73-88 0-50-21-86-72-86-52 0-73 35-73 86s22 88 72 88" id="y"/><path fill="#333" d="M24 0v-248h195v40H76v63h132v40H76v65h150V0H24" id="z"/><g id="c"><use transform="matrix(0.10493827160493814,0,0,0.10493827160493814,0,0)" xlink:href="#t"/><use transform="matrix(0.10493827160493814,0,0,0.10493827160493814,31.376543209876505,0)" xlink:href="#y"/><use transform="matrix(0.10493827160493814,0,0,0.10493827160493814,60.75925925925918,0)" xlink:href="#u"/><use transform="matrix(0.10493827160493814,0,0,0.10493827160493814,87.93827160493817,0)" xlink:href="#z"/></g><path fill="#333" d="M136-208V0H84v-208H4v-40h212v40h-80" id="A"/><g id="d"><use transform="matrix(0.10493827160493814,0,0,0.10493827160493814,0,0)" xlink:href="#u"/><use transform="matrix(0.10493827160493814,0,0,0.10493827160493814,27.179012345678977,0)" xlink:href="#v"/><use transform="matrix(0.10493827160493814,0,0,0.10493827160493814,51.524691358024626,0)" xlink:href="#A"/><use transform="matrix(0.10493827160493814,0,0,0.10493827160493814,71.67283950617275,0)" xlink:href="#v"/></g><path fill="#fff" d="M169-182c-1-43-94-46-97-3 18 66 151 10 154 114 3 95-165 93-204 36-6-8-10-19-12-30l50-8c3 46 112 56 116 5-17-69-150-10-154-114-4-87 153-88 188-35 5 8 8 18 10 28" id="B"/><path fill="#fff" d="M24 0v-248h52v208h133V0H24" id="C"/><path fill="#fff" d="M199 0l-22-63H83L61 0H9l90-248h61L250 0h-51zm-33-102l-36-108c-10 38-24 72-36 108h72" id="D"/><path fill="#fff" d="M147 0H94L2-248h55l64 206c17-72 42-137 63-206h54" id="E"/><path fill="#fff" d="M24 0v-248h195v40H76v63h132v40H76v65h150V0H24" id="F"/><g id="e"><use transform="matrix(0.07407407407407407,0,0,0.07407407407407407,0,0)" xlink:href="#B"/><use transform="matrix(0.07407407407407407,0,0,0.07407407407407407,17.77777777777778,0)" xlink:href="#C"/><use transform="matrix(0.07407407407407407,0,0,0.07407407407407407,34,0)" xlink:href="#D"/><use transform="matrix(0.07407407407407407,0,0,0.07407407407407407,51.18518518518518,0)" xlink:href="#E"/><use transform="matrix(0.07407407407407407,0,0,0.07407407407407407,68.96296296296296,0)" xlink:href="#F"/></g><path fill="#fff" d="M230 0l2-204L168 0h-37L68-204 70 0H24v-248h70l56 185 57-185h69V0h-46" id="G"/><path fill="#fff" d="M136-208V0H84v-208H4v-40h212v40h-80" id="H"/><path fill="#fff" d="M240-174c0 40-23 61-54 70L253 0h-59l-57-94H76V0H24v-248c93 4 217-23 216 74zM76-134c48-2 112 12 112-38 0-48-66-32-112-35v73" id="I"/><g id="f"><use transform="matrix(0.07407407407407407,0,0,0.07407407407407407,0,0)" xlink:href="#G"/><use transform="matrix(0.07407407407407407,0,0,0.07407407407407407,22.148148148148145,0)" xlink:href="#D"/><use transform="matrix(0.07407407407407407,0,0,0.07407407407407407,41.33333333333333,0)" xlink:href="#B"/><use transform="matrix(0.07407407407407407,0,0,0.07407407407407407,59.11111111111111,0)" xlink:href="#H"/><use transform="matrix(0.07407407407407407,0,0,0.07407407407407407,75.33333333333333,0)" xlink:href="#F"/><use transform="matrix(0.07407407407407407,0,0,0.07407407407407407,93.1111111111111,0)" xlink:href="#I"/></g><path fill="#333" d="M101-251c68 0 84 54 84 127C185-50 166 4 99 4S15-52 14-124c-1-75 17-127 87-127zm-1 216c37-5 36-46 36-89s4-89-36-89c-39 0-36 45-36 89 0 43-3 85 36 89" id="J"/><path fill="#333" d="M110-251c83-7 118 89 53 130-17 10-36 21-38 46H78c2-56 65-53 71-103 2-21-15-35-38-34-25 1-41 14-44 38l-50-2c6-48 39-70 93-75zM77 0v-47h51V0H77" id="K"/><g id="g"><use transform="matrix(0.08641975308641973,0,0,0.08641975308641973,0,0)" xlink:href="#J"/><use transform="matrix(0.08641975308641973,0,0,0.08641975308641973,17.283950617283946,0)" xlink:href="#K"/></g><path fill="#333" d="M102-93c0 74-22 123-52 168H0C30 29 54-18 53-93c0-74-22-123-53-168h50c30 45 52 94 52 168" id="L"/><g id="h"><use transform="matrix(0.0987654320987654,0,0,0.0987654320987654,0,0)" xlink:href="#v"/><use transform="matrix(0.0987654320987654,0,0,0.0987654320987654,25.58024691358024,0)" xlink:href="#L"/></g><path fill="#333" d="M182-130c37 4 62 22 62 59C244 23 116-4 24 0v-248c84 5 203-23 205 63 0 31-19 50-47 55zM76-148c40-3 101 13 101-30 0-44-60-28-101-31v61zm0 110c48-3 116 14 116-37 0-48-69-32-116-35v72" id="M"/><g id="i"><use transform="matrix(0.0987654320987654,0,0,0.0987654320987654,0,0)" xlink:href="#M"/><use transform="matrix(0.0987654320987654,0,0,0.0987654320987654,25.58024691358024,0)" xlink:href="#L"/></g><path fill="#333" d="M144 0l-44-69L55 0H2l70-98-66-92h53l41 62 40-62h54l-67 91 71 99h-54" id="N"/><path fill="#333" d="M76-208v77h127v40H76V0H24v-248h183v40H76" id="O"/><g id="j"><use transform="matrix(0.0864197530864197,0,0,0.0864197530864197,0,0)" xlink:href="#J"/><use transform="matrix(0.0864197530864197,0,0,0.0864197530864197,17.283950617283942,0)" xlink:href="#N"/><use transform="matrix(0.0864197530864197,0,0,0.0864197530864197,34.567901234567884,0)" xlink:href="#O"/><use transform="matrix(0.0864197530864197,0,0,0.0864197530864197,53.4938271604938,0)" xlink:href="#O"/></g><g id="k"><use transform="matrix(0.0987654320987654,0,0,0.0987654320987654,0,0)" xlink:href="#s"/><use transform="matrix(0.0987654320987654,0,0,0.0987654320987654,25.58024691358024,0)" xlink:href="#L"/></g><g id="l"><use transform="matrix(0.0864197530864197,0,0,0.0864197530864197,0,0)" xlink:href="#v"/><use transform="matrix(0.0864197530864197,0,0,0.0864197530864197,22.382716049382704,0)" xlink:href="#w"/><use transform="matrix(0.0864197530864197,0,0,0.0864197530864197,44.76543209876541,0)" xlink:href="#x"/></g><g id="m"><use transform="matrix(0.0987654320987654,0,0,0.0987654320987654,0,0)" xlink:href="#u"/><use transform="matrix(0.0987654320987654,0,0,0.0987654320987654,25.58024691358024,0)" xlink:href="#L"/></g><g id="n"><use transform="matrix(0.0864197530864197,0,0,0.0864197530864197,0,0)" xlink:href="#s"/><use transform="matrix(0.0864197530864197,0,0,0.0864197530864197,22.382716049382704,0)" xlink:href="#t"/><use transform="matrix(0.0864197530864197,0,0,0.0864197530864197,48.22222222222219,0)" xlink:href="#u"/></g><path fill="#333" d="M35-132v-50h50v50H35zM35 0v-49h50V0H35" id="P"/><g id="o"><use transform="matrix(0.10493827160493814,0,0,0.10493827160493814,0,0)" xlink:href="#s"/><use transform="matrix(0.10493827160493814,0,0,0.10493827160493814,27.179012345678977,0)" xlink:href="#t"/><use transform="matrix(0.10493827160493814,0,0,0.10493827160493814,58.555555555555486,0)" xlink:href="#u"/><use transform="matrix(0.10493827160493814,0,0,0.10493827160493814,85.73456790123447,0)" xlink:href="#P"/></g><use transform="matrix(0.10493827160493814,0,0,0.10493827160493814,0,0)" xlink:href="#J" id="p"/><g id="q"><use transform="matrix(0.10493827160493814,0,0,0.10493827160493814,0,0)" xlink:href="#v"/><use transform="matrix(0.10493827160493814,0,0,0.10493827160493814,27.179012345678977,0)" xlink:href="#w"/><use transform="matrix(0.10493827160493814,0,0,0.10493827160493814,54.358024691357954,0)" xlink:href="#x"/><use transform="matrix(0.10493827160493814,0,0,0.10493827160493814,83.74074074074063,0)" xlink:href="#P"/></g><g id="r"><use transform="matrix(0.0987654320987654,0,0,0.0987654320987654,0,0)" xlink:href="#z"/><use transform="matrix(0.0987654320987654,0,0,0.0987654320987654,23.703703703703695,0)" xlink:href="#L"/></g></defs></g></svg>