<svg xmlns="http://www.w3.org/2000/svg" xmlns:xlink="http://www.w3.org/1999/xlink" xmlns:lucid="lucid" width="440.94" height="440.94"><g transform="translate(0 0)" lucid:page-tab-id="vOXZ3rNumwxk"><path d="M0 0h440.94v440.94H0z" fill="#fff"/><path d="M125.98 0h188.98v63H125.98z" stroke="#5e5e5e" stroke-width="5" fill="#ff8f80"/><use xlink:href="#a" transform="matrix(1,0,0,1,128.9842519685039,3) translate(48.632716049382765 37.347222222222186)"/><path d="M125.98 63h188.98v62.98H125.98z" stroke="#5e5e5e" stroke-width="5" fill="#ffbbb1"/><use xlink:href="#b" transform="matrix(1,0,0,1,128.9842519685039,65.99212598425191) translate(49.62962962962968 37.347222222222186)"/><path d="M125.98 125.98h188.98v63H125.98z" stroke="#5e5e5e" stroke-width="5" fill="#5abaa7"/><use xlink:href="#c" transform="matrix(1,0,0,1,128.9842519685039,128.98425196850388) translate(34.938271604938336 37.347222222222186)"/><path d="M125.98 188.98h188.98v63H125.98z" stroke="#5e5e5e" stroke-width="5" fill="#ffdf71"/><use xlink:href="#d" transform="matrix(1,0,0,1,128.9842519685039,191.97637795275594) translate(21.086419753086503 37.347222222222186)"/><path d="M125.98 251.97h188.98v63H125.98z" stroke="#5e5e5e" stroke-width="5" fill="#ffdf71"/><use xlink:href="#e" transform="matrix(1,0,0,1,128.9842519685039,254.96850393700788) translate(21.086419753086503 37.347222222222186)"/><path d="M125.98 377.95h188.98v63H125.98z" stroke="#5e5e5e" stroke-width="5" fill="#ffdf71"/><use xlink:href="#f" transform="matrix(1,0,0,1,128.9842519685039,380.9527559055117) translate(17.990740740740833 37.347222222222186)"/><path d="M125.98 314.96h188.98v63H125.98z" stroke="#000" stroke-opacity="0" stroke-width="3" fill-opacity="0"/><use xlink:href="#g" transform="matrix(1,0,0,1,128.9842519685039,317.96062992125974) translate(75.75925925925928 37.347222222222186)"/><path d="M0 0h125.98v63H0z" stroke="#000" stroke-opacity="0" stroke-width="5" fill-opacity="0"/><use xlink:href="#h" transform="matrix(1,0,0,1,3.000000000000007,3.000000000000046) translate(18.024691358024747 37.347222222222186)"/><path d="M0 63h125.98v62.98H0z" stroke="#000" stroke-opacity="0" stroke-width="5" fill-opacity="0"/><use xlink:href="#i" transform="matrix(1,0,0,1,3.000000000000007,65.99212598425198) translate(18.024691358024747 37.347222222222186)"/><path d="M0 125.98h125.98v63H0z" stroke="#000" stroke-opacity="0" stroke-width="5" fill-opacity="0"/><use xlink:href="#j" transform="matrix(1,0,0,1,3.000000000000007,128.98425196850405) translate(18.024691358024747 37.347222222222186)"/><path d="M0 188.98h125.98v63H0z" stroke="#000" stroke-opacity="0" stroke-width="5" fill-opacity="0"/><use xlink:href="#k" transform="matrix(1,0,0,1,3.000000000000007,191.97637795275594) translate(18.024691358024747 37.347222222222186)"/><path d="M0 251.97h125.98v63H0z" stroke="#000" stroke-opacity="0" stroke-width="5" fill-opacity="0"/><use xlink:href="#l" transform="matrix(1,0,0,1,3.000000000000007,254.968503937008) translate(18.024691358024747 37.347222222222186)"/><path d="M0 377.95h125.98v63H0z" stroke="#000" stroke-opacity="0" stroke-width="5" fill-opacity="0"/><use xlink:href="#m" transform="matrix(1,0,0,1,3.000000000000007,380.95275590551176) translate(13.827160493827222 37.347222222222186)"/><path d="M220.47 185.48v-22c0-3.3-2.68-6-6-6h-26.63c-3.32 0-6-2.7-6-6v-4.5" stroke="#000" stroke-opacity="0" stroke-width="2" fill="none"/><path d="M181.84 131.72l4.63 14.27h-9.27z" stroke="#000" stroke-opacity="0" stroke-width="2" fill-opacity="0"/><path d="M346.46 0h94.48v63h-94.48z" stroke="#000" stroke-opacity="0" stroke-width="5" fill-opacity="0"/><use xlink:href="#n" transform="matrix(1,0,0,1,349.4566929133858,3.000000000000121) translate(0 37.347222222222186)"/><path d="M346.46 63h94.48v62.98h-94.48z" stroke="#000" stroke-opacity="0" stroke-width="5" fill-opacity="0"/><use xlink:href="#n" transform="matrix(1,0,0,1,349.4566929133858,65.99212598425217) translate(0 37.347222222222186)"/><path d="M346.46 125.98h94.48v63h-94.48z" stroke="#000" stroke-opacity="0" stroke-width="5" fill-opacity="0"/><use xlink:href="#o" transform="matrix(1,0,0,1,349.4566929133858,128.98425196850394) translate(0 37.347222222222186)"/><path d="M346.46 188.98h94.48v63h-94.48z" stroke="#000" stroke-opacity="0" stroke-width="5" fill-opacity="0"/><use xlink:href="#o" transform="matrix(1,0,0,1,349.4566929133858,191.97637795275588) translate(0 37.347222222222186)"/><path d="M346.46 251.97h94.48v63h-94.48z" stroke="#000" stroke-opacity="0" stroke-width="5" fill-opacity="0"/><use xlink:href="#o" transform="matrix(1,0,0,1,349.4566929133858,254.96850393700805) translate(0 37.347222222222186)"/><path d="M346.46 377.95h94.48v63h-94.48z" stroke="#000" stroke-opacity="0" stroke-width="5" fill-opacity="0"/><use xlink:href="#o" transform="matrix(1,0,0,1,349.4566929133858,380.95275590551176) translate(0 37.347222222222186)"/><defs><path fill="#333" d="M67-125c0 53 21 87 73 88 37 1 54-22 65-47l45 17C233-25 199 4 140 4 58 4 20-42 15-125 8-235 124-281 211-232c18 10 29 29 36 50l-46 12c-8-25-30-41-62-41-52 0-71 34-72 86" id="p"/><path fill="#333" d="M230 0l2-204L168 0h-37L68-204 70 0H24v-248h70l56 185 57-185h69V0h-46" id="q"/><path fill="#333" d="M24-248c120-7 223 5 221 122C244-46 201 0 124 0H24v-248zM76-40c74 7 117-18 117-86 0-67-45-88-117-82v168" id="r"/><g id="a"><use transform="matrix(0.10493827160493814,0,0,0.10493827160493814,0,0)" xlink:href="#p"/><use transform="matrix(0.10493827160493814,0,0,0.10493827160493814,27.179012345678977,0)" xlink:href="#q"/><use transform="matrix(0.10493827160493814,0,0,0.10493827160493814,58.555555555555486,0)" xlink:href="#r"/></g><path fill="#333" d="M199 0l-22-63H83L61 0H9l90-248h61L250 0h-51zm-33-102l-36-108c-10 38-24 72-36 108h72" id="s"/><path fill="#333" d="M240-174c0 40-23 61-54 70L253 0h-59l-57-94H76V0H24v-248c93 4 217-23 216 74zM76-134c48-2 112 12 112-38 0-48-66-32-112-35v73" id="t"/><path fill="#333" d="M67-125c0 54 23 88 75 88 28 0 53-7 68-21v-34h-60v-39h108v91C232-14 192 4 140 4 58 4 20-42 15-125 8-236 126-280 215-234c19 10 29 26 37 47l-47 15c-11-23-29-39-63-39-53 1-75 33-75 86" id="u"/><g id="b"><use transform="matrix(0.10493827160493814,0,0,0.10493827160493814,0,0)" xlink:href="#s"/><use transform="matrix(0.10493827160493814,0,0,0.10493827160493814,27.179012345678977,0)" xlink:href="#t"/><use transform="matrix(0.10493827160493814,0,0,0.10493827160493814,54.358024691357954,0)" xlink:href="#u"/></g><path fill="#333" d="M140-251c80 0 125 45 125 126S219 4 139 4C58 4 15-44 15-125s44-126 125-126zm-1 214c52 0 73-35 73-88 0-50-21-86-72-86-52 0-73 35-73 86s22 88 72 88" id="v"/><path fill="#333" d="M24 0v-248h195v40H76v63h132v40H76v65h150V0H24" id="w"/><g id="c"><use transform="matrix(0.10493827160493814,0,0,0.10493827160493814,0,0)" xlink:href="#q"/><use transform="matrix(0.10493827160493814,0,0,0.10493827160493814,31.376543209876505,0)" xlink:href="#v"/><use transform="matrix(0.10493827160493814,0,0,0.10493827160493814,60.75925925925918,0)" xlink:href="#r"/><use transform="matrix(0.10493827160493814,0,0,0.10493827160493814,87.93827160493817,0)" xlink:href="#w"/></g><path fill="#333" d="M136-208V0H84v-208H4v-40h212v40h-80" id="x"/><path fill="#333" d="M-4 44V30h207v14H-4" id="y"/><path fill="#333" d="M101-251c68 0 84 54 84 127C185-50 166 4 99 4S15-52 14-124c-1-75 17-127 87-127zm-1 216c37-5 36-46 36-89s4-89-36-89c-39 0-36 45-36 89 0 43-3 85 36 89" id="z"/><g id="d"><use transform="matrix(0.10493827160493814,0,0,0.10493827160493814,0,0)" xlink:href="#r"/><use transform="matrix(0.10493827160493814,0,0,0.10493827160493814,27.179012345678977,0)" xlink:href="#s"/><use transform="matrix(0.10493827160493814,0,0,0.10493827160493814,51.524691358024626,0)" xlink:href="#x"/><use transform="matrix(0.10493827160493814,0,0,0.10493827160493814,71.67283950617275,0)" xlink:href="#s"/><use transform="matrix(0.10493827160493814,0,0,0.10493827160493814,98.85185185185173,0)" xlink:href="#y"/><use transform="matrix(0.10493827160493814,0,0,0.10493827160493814,119.83950617283935,0)" xlink:href="#z"/></g><path fill="#333" d="M23 0v-37h61v-169l-59 37v-38l62-41h46v211h57V0H23" id="A"/><g id="e"><use transform="matrix(0.10493827160493814,0,0,0.10493827160493814,0,0)" xlink:href="#r"/><use transform="matrix(0.10493827160493814,0,0,0.10493827160493814,27.179012345678977,0)" xlink:href="#s"/><use transform="matrix(0.10493827160493814,0,0,0.10493827160493814,51.524691358024626,0)" xlink:href="#x"/><use transform="matrix(0.10493827160493814,0,0,0.10493827160493814,71.67283950617275,0)" xlink:href="#s"/><use transform="matrix(0.10493827160493814,0,0,0.10493827160493814,98.85185185185173,0)" xlink:href="#y"/><use transform="matrix(0.10493827160493814,0,0,0.10493827160493814,119.83950617283935,0)" xlink:href="#A"/></g><path fill="#333" d="M175 0L67-191c6 58 2 128 3 191H24v-248h59L193-55c-6-58-2-129-3-193h46V0h-61" id="B"/><g id="f"><use transform="matrix(0.10493827160493814,0,0,0.10493827160493814,0,0)" xlink:href="#r"/><use transform="matrix(0.10493827160493814,0,0,0.10493827160493814,27.179012345678977,0)" xlink:href="#s"/><use transform="matrix(0.10493827160493814,0,0,0.10493827160493814,51.524691358024626,0)" xlink:href="#x"/><use transform="matrix(0.10493827160493814,0,0,0.10493827160493814,71.67283950617275,0)" xlink:href="#s"/><use transform="matrix(0.10493827160493814,0,0,0.10493827160493814,98.85185185185173,0)" xlink:href="#y"/><use transform="matrix(0.10493827160493814,0,0,0.10493827160493814,119.83950617283935,0)" xlink:href="#B"/></g><path fill="#333" d="M24 0v-54h51V0H24" id="C"/><g id="g"><use transform="matrix(0.10493827160493814,0,0,0.10493827160493814,0,0)" xlink:href="#C"/><use transform="matrix(0.10493827160493814,0,0,0.10493827160493814,10.493827160493813,0)" xlink:href="#C"/><use transform="matrix(0.10493827160493814,0,0,0.10493827160493814,20.987654320987627,0)" xlink:href="#C"/></g><path fill="#333" d="M144 0l-44-69L55 0H2l70-98-66-92h53l41 62 40-62h54l-67 91 71 99h-54" id="D"/><g id="h"><use transform="matrix(0.10493827160493814,0,0,0.10493827160493814,0,0)" xlink:href="#z"/><use transform="matrix(0.10493827160493814,0,0,0.10493827160493814,20.987654320987627,0)" xlink:href="#D"/><use transform="matrix(0.10493827160493814,0,0,0.10493827160493814,41.97530864197525,0)" xlink:href="#z"/><use transform="matrix(0.10493827160493814,0,0,0.10493827160493814,62.96296296296287,0)" xlink:href="#z"/></g><g id="i"><use transform="matrix(0.10493827160493814,0,0,0.10493827160493814,0,0)" xlink:href="#z"/><use transform="matrix(0.10493827160493814,0,0,0.10493827160493814,20.987654320987627,0)" xlink:href="#D"/><use transform="matrix(0.10493827160493814,0,0,0.10493827160493814,41.97530864197525,0)" xlink:href="#z"/><use transform="matrix(0.10493827160493814,0,0,0.10493827160493814,62.96296296296287,0)" xlink:href="#A"/></g><path fill="#333" d="M182-182c0 78-84 86-111 141h115V0H12c-6-101 99-100 120-180 1-22-12-31-33-32-23 0-32 14-35 34l-49-3c5-45 32-70 84-70 51 0 83 22 83 69" id="E"/><g id="j"><use transform="matrix(0.10493827160493814,0,0,0.10493827160493814,0,0)" xlink:href="#z"/><use transform="matrix(0.10493827160493814,0,0,0.10493827160493814,20.987654320987627,0)" xlink:href="#D"/><use transform="matrix(0.10493827160493814,0,0,0.10493827160493814,41.97530864197525,0)" xlink:href="#z"/><use transform="matrix(0.10493827160493814,0,0,0.10493827160493814,62.96296296296287,0)" xlink:href="#E"/></g><path fill="#333" d="M128-127c34 4 56 21 59 58 7 91-148 94-172 28-4-9-6-17-7-26l51-5c1 24 16 35 40 36 23 0 39-12 38-36-1-31-31-36-65-34v-40c32 2 59-3 59-33 0-20-13-33-34-33s-33 13-35 32l-50-3c6-44 37-68 86-68 50 0 83 20 83 66 0 35-22 52-53 58" id="F"/><g id="k"><use transform="matrix(0.10493827160493814,0,0,0.10493827160493814,0,0)" xlink:href="#z"/><use transform="matrix(0.10493827160493814,0,0,0.10493827160493814,20.987654320987627,0)" xlink:href="#D"/><use transform="matrix(0.10493827160493814,0,0,0.10493827160493814,41.97530864197525,0)" xlink:href="#z"/><use transform="matrix(0.10493827160493814,0,0,0.10493827160493814,62.96296296296287,0)" xlink:href="#F"/></g><path fill="#333" d="M165-50V0h-47v-50H5v-38l105-160h55v161h33v37h-33zm-47-37l2-116L46-87h72" id="G"/><g id="l"><use transform="matrix(0.10493827160493814,0,0,0.10493827160493814,0,0)" xlink:href="#z"/><use transform="matrix(0.10493827160493814,0,0,0.10493827160493814,20.987654320987627,0)" xlink:href="#D"/><use transform="matrix(0.10493827160493814,0,0,0.10493827160493814,41.97530864197525,0)" xlink:href="#z"/><use transform="matrix(0.10493827160493814,0,0,0.10493827160493814,62.96296296296287,0)" xlink:href="#G"/></g><path fill="#333" d="M182 0l-62-99L58 0H3l86-130-79-118h55l55 88 55-88h55l-75 118L237 0h-55" id="H"/><g id="m"><use transform="matrix(0.10493827160493814,0,0,0.10493827160493814,0,0)" xlink:href="#z"/><use transform="matrix(0.10493827160493814,0,0,0.10493827160493814,20.987654320987627,0)" xlink:href="#D"/><use transform="matrix(0.10493827160493814,0,0,0.10493827160493814,41.97530864197525,0)" xlink:href="#H"/><use transform="matrix(0.10493827160493814,0,0,0.10493827160493814,67.16049382716041,0)" xlink:href="#H"/></g><path fill="#333" d="M4 7l51-268h42L46 7H4" id="I"/><path fill="#333" d="M275 0h-61l-44-196L126 0H64L0-248h53L97-49l45-199h58l43 199 44-199h52" id="J"/><g id="n"><use transform="matrix(0.10493827160493814,0,0,0.10493827160493814,0,0)" xlink:href="#t"/><use transform="matrix(0.10493827160493814,0,0,0.10493827160493814,27.179012345678977,0)" xlink:href="#I"/><use transform="matrix(0.10493827160493814,0,0,0.10493827160493814,37.67283950617279,0)" xlink:href="#J"/></g><g id="o"><use transform="matrix(0.10493827160493814,0,0,0.10493827160493814,0,0)" xlink:href="#t"/><use transform="matrix(0.10493827160493814,0,0,0.10493827160493814,27.179012345678977,0)" xlink:href="#v"/></g></defs></g></svg>