<svg xmlns="http://www.w3.org/2000/svg" xmlns:xlink="http://www.w3.org/1999/xlink" xmlns:lucid="lucid" width="1921.26" height="220.47"><g transform="translate(0 0)" lucid:page-tab-id="Z51SU~HwjdCr"><path d="M0 0h1921.26v220.47H0z" fill="#fff"/><path d="M63 100.5c0-3.33 2.68-6 6-6h50.98c3.32 0 6 2.67 6 6v50.98c0 3.3-2.68 6-6 6h-51c-3.3 0-6-2.7-6-6z" stroke="#5e5e5e" stroke-width="3" fill="#23a200"/><use xlink:href="#a" transform="matrix(1,0,0,1,62.992125984251906,94.48818897646312) translate(20.388888888888893 41.66666666666666)"/><path d="M125.98 100.5c0-3.33 2.7-6 6-6h51c3.3 0 6 2.67 6 6v50.98c0 3.3-2.7 6-6 6h-51c-3.3 0-6-2.7-6-6z" stroke="#5e5e5e" stroke-width="3" fill="#e5e5e5"/><use xlink:href="#b" transform="matrix(1,0,0,1,125.98425196850388,94.48818897646312) translate(10.250000000000007 41.66666666666666)"/><path d="M188.98 100.5c0-3.33 2.68-6 6-6h51c3.3 0 6 2.67 6 6v50.98c0 3.3-2.7 6-6 6h-51c-3.32 0-6-2.7-6-6z" stroke="#5e5e5e" stroke-width="3" fill="#e5e5e5"/><use xlink:href="#c" transform="matrix(1,0,0,1,188.9763779527558,94.48818897646312) translate(10.250000000000007 41.66666666666666)"/><path d="M251.97 100.5c0-3.33 2.68-6 6-6h51c3.3 0 6 2.67 6 6v50.98c0 3.3-2.7 6-6 6h-51c-3.32 0-6-2.7-6-6z" stroke="#5e5e5e" stroke-width="3" fill="#e5e5e5"/><use xlink:href="#d" transform="matrix(1,0,0,1,251.96850393700777,94.48818897646312) translate(10.250000000000007 41.66666666666666)"/><path d="M314.96 100.5c0-3.33 2.7-6 6-6h51c3.3 0 6 2.67 6 6v50.98c0 3.3-2.7 6-6 6h-51c-3.3 0-6-2.7-6-6z" stroke="#5e5e5e" stroke-width="3" fill="#e5e5e5"/><use xlink:href="#e" transform="matrix(1,0,0,1,314.9606299212598,94.48818897646312) translate(10.250000000000007 41.66666666666666)"/><path d="M377.95 100.5c0-3.33 2.7-6 6-6h51c3.3 0 6 2.67 6 6v50.98c0 3.3-2.7 6-6 6h-51c-3.3 0-6-2.7-6-6z" stroke="#5e5e5e" stroke-width="3" fill="#e5e5e5"/><use xlink:href="#f" transform="matrix(1,0,0,1,377.95275590551176,94.48818897646312) translate(10.250000000000007 41.66666666666666)"/><path d="M440.94 100.5c0-3.33 2.7-6 6-6h51c3.3 0 6 2.67 6 6v50.98c0 3.3-2.7 6-6 6h-51c-3.3 0-6-2.7-6-6z" stroke="#5e5e5e" stroke-width="3" fill="#e5e5e5"/><use xlink:href="#g" transform="matrix(1,0,0,1,440.9448818897638,94.48818897646312) translate(10.250000000000007 41.66666666666666)"/><path d="M503.94 100.5c0-3.33 2.68-6 6-6h51c3.3 0 6 2.67 6 6v50.98c0 3.3-2.7 6-6 6h-51c-3.32 0-6-2.7-6-6z" stroke="#5e5e5e" stroke-width="3" fill="#e5e5e5"/><use xlink:href="#h" transform="matrix(1,0,0,1,503.9370078740159,94.48818897646312) translate(10.250000000000007 41.66666666666666)"/><path d="M566.93 100.5c0-3.33 2.7-6 6-6h51c3.3 0 6 2.67 6 6v50.98c0 3.3-2.7 6-6 6h-51c-3.3 0-6-2.7-6-6z" stroke="#5e5e5e" stroke-width="3" fill="#fff"/><use xlink:href="#i" transform="matrix(1,0,0,1,566.9291338582678,94.48818897646312) translate(22.240740740740744 41.66666666666666)"/><path d="M629.92 163.48c0-3.3 2.7-6 6-6h51c3.3 0 6 2.7 6 6v51c0 3.3-2.7 6-6 6h-51c-3.3 0-6-2.7-6-6z" stroke="#5e5e5e" stroke-width="3" fill="#c7e8ac"/><use xlink:href="#j" transform="matrix(1,0,0,1,629.9212598425516,157.48031496071508) translate(19.509259259259263 41.66666666666666)"/><path d="M692.9 100.5c0-3.33 2.7-6 6-6h51c3.32 0 6 2.67 6 6v50.98c0 3.3-2.68 6-6 6h-51c-3.3 0-6-2.7-6-6z" stroke="#5e5e5e" stroke-width="3" fill="#e5e5e5"/><use xlink:href="#k" transform="matrix(1,0,0,1,692.9133858267717,94.48818897646312) translate(10.250000000000007 41.66666666666666)"/><path d="M755.9 100.5c0-3.33 2.7-6 6-6h51c3.3 0 6 2.67 6 6v50.98c0 3.3-2.7 6-6 6h-51c-3.3 0-6-2.7-6-6z" stroke="#5e5e5e" stroke-width="3" fill="#e5e5e5"/><use xlink:href="#l" transform="matrix(1,0,0,1,755.9055118110236,94.48818897646312) translate(10.250000000000007 41.66666666666666)"/><path d="M818.9 100.5c0-3.33 2.68-6 6-6h51c3.3 0 6 2.67 6 6v50.98c0 3.3-2.7 6-6 6h-51c-3.32 0-6-2.7-6-6z" stroke="#5e5e5e" stroke-width="3" fill="#e5e5e5"/><use xlink:href="#m" transform="matrix(1,0,0,1,818.8976377952756,94.48818897646312) translate(10.250000000000007 41.66666666666666)"/><path d="M881.9 100.5c0-3.33 2.68-6 6-6h50.98c3.32 0 6 2.67 6 6v50.98c0 3.3-2.68 6-6 6h-51c-3.3 0-6-2.7-6-6z" stroke="#5e5e5e" stroke-width="3" fill="#e5e5e5"/><use xlink:href="#n" transform="matrix(1,0,0,1,881.8897637795276,94.48818897646312) translate(10.250000000000007 41.66666666666666)"/><path d="M944.88 100.5c0-3.33 2.7-6 6-6h51c3.3 0 6 2.67 6 6v50.98c0 3.3-2.7 6-6 6h-51c-3.3 0-6-2.7-6-6z" stroke="#5e5e5e" stroke-width="3" fill="#e5e5e5"/><use xlink:href="#o" transform="matrix(1,0,0,1,944.8818897637799,94.48818897646312) translate(10.250000000000007 41.66666666666666)"/><path d="M1007.87 100.5c0-3.33 2.7-6 6-6h51c3.3 0 6 2.67 6 6v50.98c0 3.3-2.7 6-6 6h-51c-3.3 0-6-2.7-6-6z" stroke="#5e5e5e" stroke-width="3" fill="#e5e5e5"/><use xlink:href="#p" transform="matrix(1,0,0,1,1007.8740157480314,94.48818897646312) translate(10.250000000000007 41.66666666666666)"/><path d="M1070.87 100.5c0-3.33 2.68-6 6-6h51c3.3 0 6 2.67 6 6v50.98c0 3.3-2.7 6-6 6h-51c-3.32 0-6-2.7-6-6z" stroke="#5e5e5e" stroke-width="3" fill="#e5e5e5"/><use xlink:href="#q" transform="matrix(1,0,0,1,1070.8661417322837,94.48818897646312) translate(10.250000000000007 41.66666666666666)"/><path d="M1133.86 100.5c0-3.33 2.68-6 6-6h51c3.3 0 6 2.67 6 6v50.98c0 3.3-2.7 6-6 6h-51c-3.32 0-6-2.7-6-6z" stroke="#5e5e5e" stroke-width="3" fill="#e5e5e5"/><use xlink:href="#r" transform="matrix(1,0,0,1,1133.858267716536,94.48818897646312) translate(10.250000000000007 41.66666666666666)"/><path d="M1196.85 163.48c0-3.3 2.7-6 6-6h51c3.3 0 6 2.7 6 6v51c0 3.3-2.7 6-6 6h-51c-3.3 0-6-2.7-6-6z" stroke="#5e5e5e" stroke-width="3" fill="#c7e8ac"/><use xlink:href="#j" transform="matrix(1,0,0,1,1196.8503937007877,157.4803149606738) translate(19.509259259259263 41.66666666666666)"/><path d="M1259.84 100.5c0-3.33 2.7-6 6-6h51c3.3 0 6 2.67 6 6v50.98c0 3.3-2.7 6-6 6h-51c-3.3 0-6-2.7-6-6z" stroke="#5e5e5e" stroke-width="3" fill="#e5e5e5"/><use xlink:href="#s" transform="matrix(1,0,0,1,1259.8425196850735,94.48818897642185) translate(10.250000000000007 41.66666666666666)"/><path d="M1322.83 100.5c0-3.33 2.7-6 6-6h51c3.3 0 6 2.67 6 6v50.98c0 3.3-2.7 6-6 6h-51c-3.3 0-6-2.7-6-6z" stroke="#5e5e5e" stroke-width="3" fill="#e5e5e5"/><use xlink:href="#t" transform="matrix(1,0,0,1,1322.8346456693548,94.48818897642185) translate(10.250000000000007 41.66666666666666)"/><path d="M1385.83 100.5c0-3.33 2.68-6 6-6h51c3.3 0 6 2.67 6 6v50.98c0 3.3-2.7 6-6 6h-51c-3.32 0-6-2.7-6-6z" stroke="#5e5e5e" stroke-width="3" fill="#e5e5e5"/><use xlink:href="#u" transform="matrix(1,0,0,1,1385.8267716536361,94.48818897642185) translate(10.250000000000007 41.66666666666666)"/><path d="M1448.82 100.5c0-3.33 2.7-6 6-6h51c3.3 0 6 2.67 6 6v50.98c0 3.3-2.7 6-6 6h-51c-3.3 0-6-2.7-6-6z" stroke="#5e5e5e" stroke-width="3" fill="#e5e5e5"/><use xlink:href="#v" transform="matrix(1,0,0,1,1448.818897637801,94.48818897642185) translate(10.250000000000007 41.66666666666666)"/><path d="M1511.8 100.5c0-3.33 2.7-6 6-6h51c3.32 0 6 2.67 6 6v50.98c0 3.3-2.68 6-6 6h-51c-3.3 0-6-2.7-6-6z" stroke="#5e5e5e" stroke-width="3" fill="#e5e5e5"/><use xlink:href="#w" transform="matrix(1,0,0,1,1511.8110236220823,94.48818897642185) translate(10.250000000000007 41.66666666666666)"/><path d="M1574.8 100.5c0-3.33 2.7-6 6-6h51c3.3 0 6 2.67 6 6v50.98c0 3.3-2.7 6-6 6h-51c-3.3 0-6-2.7-6-6z" stroke="#5e5e5e" stroke-width="3" fill="#e5e5e5"/><use xlink:href="#x" transform="matrix(1,0,0,1,1574.8031496063636,94.48818897642185) translate(10.250000000000007 41.66666666666666)"/><path d="M1637.8 100.5c0-3.33 2.68-6 6-6h51c3.3 0 6 2.67 6 6v50.98c0 3.3-2.7 6-6 6h-51c-3.32 0-6-2.7-6-6z" stroke="#5e5e5e" stroke-width="3" fill="#e5e5e5"/><use xlink:href="#y" transform="matrix(1,0,0,1,1637.795275590645,94.48818897642185) translate(10.250000000000007 41.66666666666666)"/><path d="M1700.8 100.5c0-3.33 2.67-6 6-6h50.98c3.3 0 6 2.67 6 6v50.98c0 3.3-2.7 6-6 6h-51c-3.3 0-6-2.7-6-6z" stroke="#5e5e5e" stroke-width="3" fill="#e5e5e5"/><use xlink:href="#z" transform="matrix(1,0,0,1,1700.7874015748098,94.48818897642185) translate(10.250000000000007 41.66666666666666)"/><path d="M1763.78 163.48c0-3.3 2.7-6 6-6h51c3.3 0 6 2.7 6 6v51c0 3.3-2.7 6-6 6h-51c-3.3 0-6-2.7-6-6z" stroke="#5e5e5e" stroke-width="3" fill="#c7e8ac"/><use xlink:href="#j" transform="matrix(1,0,0,1,1763.7795275590615,157.4803149606738) translate(19.509259259259263 41.66666666666666)"/><path d="M1826.77 100.5c0-3.33 2.7-6 6-6h51c3.3 0 6 2.67 6 6v50.98c0 3.3-2.7 6-6 6h-51c-3.3 0-6-2.7-6-6z" stroke="#5e5e5e" stroke-width="3" fill="#c92d39"/><use xlink:href="#A" transform="matrix(1,0,0,1,1826.7716535433428,94.48818897646312) translate(20.388888888888893 41.66666666666666)"/><g fill="none"><path d="M131.98 63c-3.3 0-6-2.7-6-6V6c0-3.3 2.7-6 6-6h428.95c3.3 0 6 2.7 6 6v51c0 3.3-2.7 6-6 6z"/><path d="M566.93 63c0-5.53-4.48-10-10-10H356.46c-5.53 0-10-4.5-10-10 0 5.5-4.48 10-10 10H135.98c-5.52 0-10 4.47-10 10" stroke="#5e5e5e" stroke-width="3"/></g><use xlink:href="#B" transform="matrix(1,0,0,1,130.98425196850377,5.000000000145622) translate(99.09259259259258 24.888888888888893)"/><use xlink:href="#C" transform="matrix(1,0,0,1,130.98425196850377,5.000000000145622) translate(231.91975308641975 24.888888888888893)"/><use xlink:href="#D" transform="matrix(1,0,0,1,130.98425196850377,5.000000000145622) translate(250.84567901234567 24.888888888888893)"/><use xlink:href="#E" transform="matrix(1,0,0,1,130.98425196850377,5.000000000145622) translate(276.7716049382716 24.888888888888893)"/><path d="M535.43 6c0-3.3 2.7-6 6-6h114c3.3 0 6 2.7 6 6v51c0 3.3-2.7 6-6 6h-114c-3.3 0-6-2.7-6-6z" stroke="#000" stroke-opacity="0" stroke-width="3" fill="#fff" fill-opacity="0"/><use xlink:href="#F" transform="matrix(1,0,0,1,540.4330708661416,5.000000000000043) translate(19.5 31.513888888888893)"/><g fill="none"><path d="M698.9 63c-3.3 0-6-2.7-6-6V6c0-3.3 2.7-6 6-6h491.95c3.3 0 6 2.7 6 6v51c0 3.3-2.7 6-6 6z"/><path d="M1196.85 63c0-5.53-4.48-10-10-10H954.88c-5.52 0-10-4.5-10-10 0 5.5-4.48 10-10 10H702.9c-5.5 0-10 4.47-10 10" stroke="#5e5e5e" stroke-width="3"/></g><use xlink:href="#G" transform="matrix(1,0,0,1,697.9133858268035,5.000000000145359) translate(130.59259259259258 24.888888888888893)"/><use xlink:href="#C" transform="matrix(1,0,0,1,697.9133858268035,5.000000000145359) translate(263.41975308641975 24.888888888888893)"/><use xlink:href="#H" transform="matrix(1,0,0,1,697.9133858268035,5.000000000145359) translate(282.34567901234567 24.888888888888893)"/><use xlink:href="#E" transform="matrix(1,0,0,1,697.9133858268035,5.000000000145359) translate(308.2716049382716 24.888888888888893)"/><g fill="none"><path d="M1265.84 63c-3.3 0-6-2.7-6-6V6c0-3.3 2.7-6 6-6h491.94c3.3 0 6 2.7 6 6v51c0 3.3-2.7 6-6 6z"/><path d="M1763.78 63c0-5.53-4.48-10-10-10H1521.8c-5.5 0-10-4.5-10-10 0 5.5-4.47 10-10 10h-231.96c-5.52 0-10 4.47-10 10" stroke="#5e5e5e" stroke-width="3"/></g><use xlink:href="#I" transform="matrix(1,0,0,1,1264.8425196850596,4.999999999999954) translate(159.0679012345679 24.888888888888893)"/><use xlink:href="#C" transform="matrix(1,0,0,1,1264.8425196850596,4.999999999999954) translate(234.94444444444446 24.888888888888893)"/><use xlink:href="#H" transform="matrix(1,0,0,1,1264.8425196850596,4.999999999999954) translate(253.87037037037038 24.888888888888893)"/><use xlink:href="#E" transform="matrix(1,0,0,1,1264.8425196850596,4.999999999999954) translate(279.7962962962963 24.888888888888893)"/><path d="M598.43 64.5v27" stroke="#5e5e5e" stroke-width="3" fill="none"/><path d="M599.93 64.53h-3V63h3zM599.93 93h-3v-1.55h3z" fill="#5e5e5e"/><path d="M31.5 6c0-3.3 2.68-6 6-6h113.98c3.3 0 6 2.7 6 6v51c0 3.3-2.7 6-6 6H37.5c-3.32 0-6-2.7-6-6z" stroke="#000" stroke-opacity="0" stroke-width="3" fill="#fff" fill-opacity="0"/><use xlink:href="#J" transform="matrix(1,0,0,1,36.49606299212593,5.0000000001456755) translate(22.654320987654316 31.513888888888893)"/><path d="M94.5 64.5v27" stroke="#5e5e5e" stroke-width="3" fill="none"/><path d="M96 64.53h-3V63h3zM96 93h-3v-1.55h3z" fill="#5e5e5e"/><path d="M1795.28 6c0-3.3 2.68-6 6-6h113.98c3.3 0 6 2.7 6 6v51c0 3.3-2.7 6-6 6h-113.98c-3.32 0-6-2.7-6-6z" stroke="#000" stroke-opacity="0" stroke-width="3" fill="#fff" fill-opacity="0"/><g><use xlink:href="#K" transform="matrix(1,0,0,1,1800.2755905512167,5.0000000001456755) translate(23.561728395061728 31.513888888888893)"/></g><path d="M1858.27 64.5v27" stroke="#5e5e5e" stroke-width="3" fill="none"/><path d="M1859.77 64.53h-3V63h3zM1859.77 93h-3v-1.55h3z" fill="#5e5e5e"/><path d="M0 100.5c0-3.33 2.7-6 6-6h51c3.3 0 6 2.67 6 6v50.98c0 3.3-2.7 6-6 6H6c-3.3 0-6-2.7-6-6z" stroke="#000" stroke-opacity="0" stroke-width="3" fill-opacity="0"/><g><use xlink:href="#L" transform="matrix(1,0,0,1,0,94.48818897646312) translate(13.438271604938269 39.88888888888889)"/></g><path d="M0 163.48c0-3.3 2.7-6 6-6h51c3.3 0 6 2.7 6 6v51c0 3.3-2.7 6-6 6H6c-3.3 0-6-2.7-6-6z" stroke="#000" stroke-opacity="0" stroke-width="3" fill-opacity="0"/><g><use xlink:href="#M" transform="matrix(1,0,0,1,0,157.48031496071508) translate(15.987654320987652 39.88888888888889)"/></g><defs><path fill="#fff" d="M169-182c-1-43-94-46-97-3 18 66 151 10 154 114 3 95-165 93-204 36-6-8-10-19-12-30l50-8c3 46 112 56 116 5-17-69-150-10-154-114-4-87 153-88 188-35 5 8 8 18 10 28" id="N"/><use transform="matrix(0.09259259259259256,0,0,0.09259259259259256,0,0)" xlink:href="#N" id="a"/><path fill="#333" d="M199 0l-22-63H83L61 0H9l90-248h61L250 0h-51zm-33-102l-36-108c-10 38-24 72-36 108h72" id="O"/><path fill="#333" d="M115-159c48 0 72 30 72 78 0 54-30 85-83 85-64 0-91-50-91-122 0-98 58-163 141-120 15 8 21 24 27 44l-47 6c-5-31-48-31-61-4-7 14-11 33-11 60 9-17 28-27 53-27zM102-35c24 0 36-20 36-45s-11-43-37-43c-23 0-36 14-36 38 0 27 11 50 37 50" id="P"/><g id="b"><use transform="matrix(0.09259259259259256,0,0,0.09259259259259256,0,0)" xlink:href="#O"/><use transform="matrix(0.09259259259259256,0,0,0.09259259259259256,23.981481481481474,0)" xlink:href="#P"/></g><path fill="#333" d="M139-81c0-46-55-55-73-27H18l9-140h149v37H72l-4 63c44-38 133-4 122 66C201 21 21 35 11-62l49-4c5 18 15 30 39 30 26 0 40-18 40-45" id="Q"/><g id="c"><use transform="matrix(0.09259259259259256,0,0,0.09259259259259256,0,0)" xlink:href="#O"/><use transform="matrix(0.09259259259259256,0,0,0.09259259259259256,23.981481481481474,0)" xlink:href="#Q"/></g><path fill="#333" d="M165-50V0h-47v-50H5v-38l105-160h55v161h33v37h-33zm-47-37l2-116L46-87h72" id="R"/><g id="d"><use transform="matrix(0.09259259259259256,0,0,0.09259259259259256,0,0)" xlink:href="#O"/><use transform="matrix(0.09259259259259256,0,0,0.09259259259259256,23.981481481481474,0)" xlink:href="#R"/></g><path fill="#333" d="M128-127c34 4 56 21 59 58 7 91-148 94-172 28-4-9-6-17-7-26l51-5c1 24 16 35 40 36 23 0 39-12 38-36-1-31-31-36-65-34v-40c32 2 59-3 59-33 0-20-13-33-34-33s-33 13-35 32l-50-3c6-44 37-68 86-68 50 0 83 20 83 66 0 35-22 52-53 58" id="S"/><g id="e"><use transform="matrix(0.09259259259259256,0,0,0.09259259259259256,0,0)" xlink:href="#O"/><use transform="matrix(0.09259259259259256,0,0,0.09259259259259256,23.981481481481474,0)" xlink:href="#S"/></g><path fill="#333" d="M182-182c0 78-84 86-111 141h115V0H12c-6-101 99-100 120-180 1-22-12-31-33-32-23 0-32 14-35 34l-49-3c5-45 32-70 84-70 51 0 83 22 83 69" id="T"/><g id="f"><use transform="matrix(0.09259259259259256,0,0,0.09259259259259256,0,0)" xlink:href="#O"/><use transform="matrix(0.09259259259259256,0,0,0.09259259259259256,23.981481481481474,0)" xlink:href="#T"/></g><path fill="#333" d="M23 0v-37h61v-169l-59 37v-38l62-41h46v211h57V0H23" id="U"/><g id="g"><use transform="matrix(0.09259259259259256,0,0,0.09259259259259256,0,0)" xlink:href="#O"/><use transform="matrix(0.09259259259259256,0,0,0.09259259259259256,23.981481481481474,0)" xlink:href="#U"/></g><path fill="#333" d="M101-251c68 0 84 54 84 127C185-50 166 4 99 4S15-52 14-124c-1-75 17-127 87-127zm-1 216c37-5 36-46 36-89s4-89-36-89c-39 0-36 45-36 89 0 43-3 85 36 89" id="V"/><g id="h"><use transform="matrix(0.09259259259259256,0,0,0.09259259259259256,0,0)" xlink:href="#O"/><use transform="matrix(0.09259259259259256,0,0,0.09259259259259256,23.981481481481474,0)" xlink:href="#V"/></g><use transform="matrix(0.09259259259259256,0,0,0.09259259259259256,0,0)" xlink:href="#V" id="i"/><use transform="matrix(0.09259259259259256,0,0,0.09259259259259256,0,0)" xlink:href="#O" id="j"/><path fill="#333" d="M182-130c37 4 62 22 62 59C244 23 116-4 24 0v-248c84 5 203-23 205 63 0 31-19 50-47 55zM76-148c40-3 101 13 101-30 0-44-60-28-101-31v61zm0 110c48-3 116 14 116-37 0-48-69-32-116-35v72" id="W"/><path fill="#333" d="M52 0c1-96 47-148 87-207H15v-41h169v40c-36 62-79 113-81 208H52" id="X"/><g id="k"><use transform="matrix(0.09259259259259256,0,0,0.09259259259259256,0,0)" xlink:href="#W"/><use transform="matrix(0.09259259259259256,0,0,0.09259259259259256,23.981481481481474,0)" xlink:href="#X"/></g><g id="l"><use transform="matrix(0.09259259259259256,0,0,0.09259259259259256,0,0)" xlink:href="#W"/><use transform="matrix(0.09259259259259256,0,0,0.09259259259259256,23.981481481481474,0)" xlink:href="#P"/></g><g id="m"><use transform="matrix(0.09259259259259256,0,0,0.09259259259259256,0,0)" xlink:href="#W"/><use transform="matrix(0.09259259259259256,0,0,0.09259259259259256,23.981481481481474,0)" xlink:href="#Q"/></g><g id="n"><use transform="matrix(0.09259259259259256,0,0,0.09259259259259256,0,0)" xlink:href="#W"/><use transform="matrix(0.09259259259259256,0,0,0.09259259259259256,23.981481481481474,0)" xlink:href="#R"/></g><g id="o"><use transform="matrix(0.09259259259259256,0,0,0.09259259259259256,0,0)" xlink:href="#W"/><use transform="matrix(0.09259259259259256,0,0,0.09259259259259256,23.981481481481474,0)" xlink:href="#S"/></g><g id="p"><use transform="matrix(0.09259259259259256,0,0,0.09259259259259256,0,0)" xlink:href="#W"/><use transform="matrix(0.09259259259259256,0,0,0.09259259259259256,23.981481481481474,0)" xlink:href="#T"/></g><g id="q"><use transform="matrix(0.09259259259259256,0,0,0.09259259259259256,0,0)" xlink:href="#W"/><use transform="matrix(0.09259259259259256,0,0,0.09259259259259256,23.981481481481474,0)" xlink:href="#U"/></g><g id="r"><use transform="matrix(0.09259259259259256,0,0,0.09259259259259256,0,0)" xlink:href="#W"/><use transform="matrix(0.09259259259259256,0,0,0.09259259259259256,23.981481481481474,0)" xlink:href="#V"/></g><path fill="#333" d="M24-248c120-7 223 5 221 122C244-46 201 0 124 0H24v-248zM76-40c74 7 117-18 117-86 0-67-45-88-117-82v168" id="Y"/><g id="s"><use transform="matrix(0.09259259259259256,0,0,0.09259259259259256,0,0)" xlink:href="#Y"/><use transform="matrix(0.09259259259259256,0,0,0.09259259259259256,23.981481481481474,0)" xlink:href="#X"/></g><g id="t"><use transform="matrix(0.09259259259259256,0,0,0.09259259259259256,0,0)" xlink:href="#Y"/><use transform="matrix(0.09259259259259256,0,0,0.09259259259259256,23.981481481481474,0)" xlink:href="#P"/></g><g id="u"><use transform="matrix(0.09259259259259256,0,0,0.09259259259259256,0,0)" xlink:href="#Y"/><use transform="matrix(0.09259259259259256,0,0,0.09259259259259256,23.981481481481474,0)" xlink:href="#Q"/></g><g id="v"><use transform="matrix(0.09259259259259256,0,0,0.09259259259259256,0,0)" xlink:href="#Y"/><use transform="matrix(0.09259259259259256,0,0,0.09259259259259256,23.981481481481474,0)" xlink:href="#R"/></g><g id="w"><use transform="matrix(0.09259259259259256,0,0,0.09259259259259256,0,0)" xlink:href="#Y"/><use transform="matrix(0.09259259259259256,0,0,0.09259259259259256,23.981481481481474,0)" xlink:href="#S"/></g><g id="x"><use transform="matrix(0.09259259259259256,0,0,0.09259259259259256,0,0)" xlink:href="#Y"/><use transform="matrix(0.09259259259259256,0,0,0.09259259259259256,23.981481481481474,0)" xlink:href="#T"/></g><g id="y"><use transform="matrix(0.09259259259259256,0,0,0.09259259259259256,0,0)" xlink:href="#Y"/><use transform="matrix(0.09259259259259256,0,0,0.09259259259259256,23.981481481481474,0)" xlink:href="#U"/></g><g id="z"><use transform="matrix(0.09259259259259256,0,0,0.09259259259259256,0,0)" xlink:href="#Y"/><use transform="matrix(0.09259259259259256,0,0,0.09259259259259256,23.981481481481474,0)" xlink:href="#V"/></g><path fill="#fff" d="M24-248c93 1 206-16 204 79-1 75-69 88-152 82V0H24v-248zm52 121c47 0 100 7 100-41 0-47-54-39-100-39v80" id="Z"/><use transform="matrix(0.09259259259259256,0,0,0.09259259259259256,0,0)" xlink:href="#Z" id="A"/><path fill="#333" d="M88-194c31-1 46 15 58 34l-1-101h50l1 261h-48c-2-10 0-23-3-31C134-8 116 4 84 4 32 4 16-41 15-95c0-56 19-97 73-99zm17 164c33 0 40-30 41-66 1-37-9-64-41-64s-38 30-39 65c0 43 13 65 39 65" id="aa"/><path fill="#333" d="M135-150c-39-12-60 13-60 57V0H25l-1-190h47c2 13-1 29 3 40 6-28 27-53 61-41v41" id="ab"/><path fill="#333" d="M185-48c-13 30-37 53-82 52C43 2 14-33 14-96s30-98 90-98c62 0 83 45 84 108H66c0 31 8 55 39 56 18 0 30-7 34-22zm-45-69c5-46-57-63-70-21-2 6-4 13-4 21h74" id="ac"/><path fill="#333" d="M137-138c1-29-70-34-71-4 15 46 118 7 119 86 1 83-164 76-172 9l43-7c4 19 20 25 44 25 33 8 57-30 24-41C81-84 22-81 20-136c-2-80 154-74 161-7" id="ad"/><g id="B"><use transform="matrix(0.08641975308641976,0,0,0.08641975308641976,0,0)" xlink:href="#O"/><use transform="matrix(0.08641975308641976,0,0,0.08641975308641976,22.38271604938272,0)" xlink:href="#aa"/><use transform="matrix(0.08641975308641976,0,0,0.08641975308641976,41.308641975308646,0)" xlink:href="#aa"/><use transform="matrix(0.08641975308641976,0,0,0.08641975308641976,60.23456790123458,0)" xlink:href="#ab"/><use transform="matrix(0.08641975308641976,0,0,0.08641975308641976,72.33333333333334,0)" xlink:href="#ac"/><use transform="matrix(0.08641975308641976,0,0,0.08641975308641976,89.61728395061729,0)" xlink:href="#ad"/><use transform="matrix(0.08641975308641976,0,0,0.08641975308641976,106.90123456790124,0)" xlink:href="#ad"/></g><path fill="#333" d="M14-72v-43h91v43H14" id="ae"/><use transform="matrix(0.08641975308641976,0,0,0.08641975308641976,0,0)" xlink:href="#ae" id="C"/><use transform="matrix(0.08641975308641976,0,0,0.08641975308641976,0,0)" xlink:href="#X" id="D"/><path fill="#333" d="M135-194c52 0 70 43 70 98 0 56-19 99-73 100-30 1-46-15-58-35L72 0H24l1-261h50v104c11-23 29-37 60-37zM114-30c31 0 40-27 40-66 0-37-7-63-39-63s-41 28-41 65c0 36 8 64 40 64" id="af"/><path fill="#333" d="M25-224v-37h50v37H25zM25 0v-190h50V0H25" id="ag"/><path fill="#333" d="M115-3C79 11 28 4 28-45v-112H4v-33h27l15-45h31v45h36v33H77v99c-1 23 16 31 38 25v30" id="ah"/><g id="E"><use transform="matrix(0.08641975308641976,0,0,0.08641975308641976,0,0)" xlink:href="#af"/><use transform="matrix(0.08641975308641976,0,0,0.08641975308641976,18.925925925925927,0)" xlink:href="#ag"/><use transform="matrix(0.08641975308641976,0,0,0.08641975308641976,27.567901234567906,0)" xlink:href="#ah"/><use transform="matrix(0.08641975308641976,0,0,0.08641975308641976,37.851851851851855,0)" xlink:href="#ad"/></g><path fill="#333" d="M275 0h-61l-44-196L126 0H64L0-248h53L97-49l45-199h58l43 199 44-199h52" id="ai"/><g id="F"><use transform="matrix(0.08641975308641976,0,0,0.08641975308641976,0,0)" xlink:href="#ai"/><use transform="matrix(0.08641975308641976,0,0,0.08641975308641976,28.69135802469136,0)" xlink:href="#ab"/><use transform="matrix(0.08641975308641976,0,0,0.08641975308641976,40.79012345679013,0)" xlink:href="#ag"/><use transform="matrix(0.08641975308641976,0,0,0.08641975308641976,49.4320987654321,0)" xlink:href="#ah"/><use transform="matrix(0.08641975308641976,0,0,0.08641975308641976,59.71604938271606,0)" xlink:href="#ac"/></g><path fill="#333" d="M240-174c0 40-23 61-54 70L253 0h-59l-57-94H76V0H24v-248c93 4 217-23 216 74zM76-134c48-2 112 12 112-38 0-48-66-32-112-35v73" id="aj"/><path fill="#333" d="M195-6C206 82 75 100 31 46c-4-6-6-13-8-21l49-6c3 16 16 24 34 25 40 0 42-37 40-79-11 22-30 35-61 35-53 0-70-43-70-97 0-56 18-96 73-97 30 0 46 14 59 34l2-30h47zm-90-29c32 0 41-27 41-63 0-35-9-62-40-62-32 0-39 29-40 63 0 36 9 62 39 62" id="ak"/><g id="G"><use transform="matrix(0.08641975308641976,0,0,0.08641975308641976,0,0)" xlink:href="#aj"/><use transform="matrix(0.08641975308641976,0,0,0.08641975308641976,22.38271604938272,0)" xlink:href="#ac"/><use transform="matrix(0.08641975308641976,0,0,0.08641975308641976,39.66666666666667,0)" xlink:href="#ak"/><use transform="matrix(0.08641975308641976,0,0,0.08641975308641976,58.592592592592595,0)" xlink:href="#ag"/><use transform="matrix(0.08641975308641976,0,0,0.08641975308641976,67.23456790123457,0)" xlink:href="#ad"/><use transform="matrix(0.08641975308641976,0,0,0.08641975308641976,84.51851851851852,0)" xlink:href="#ah"/><use transform="matrix(0.08641975308641976,0,0,0.08641975308641976,94.80246913580245,0)" xlink:href="#ac"/><use transform="matrix(0.08641975308641976,0,0,0.08641975308641976,112.08641975308642,0)" xlink:href="#ab"/></g><path fill="#333" d="M138-131c27 9 52 24 51 61 0 53-36 74-89 74S11-19 11-69c0-35 22-54 51-61-78-25-46-121 38-121 51 0 83 19 83 66 0 30-18 49-45 54zm-38-16c24 0 32-13 32-36 1-23-11-34-32-34-22 0-33 12-32 34 0 22 9 36 32 36zm1 116c27 0 37-17 37-43 0-25-13-39-39-39-24 0-37 15-37 40 0 27 11 42 39 42" id="al"/><use transform="matrix(0.08641975308641976,0,0,0.08641975308641976,0,0)" xlink:href="#al" id="H"/><path fill="#333" d="M133-34C117-15 103 5 69 4 32 3 11-16 11-54c-1-60 55-63 116-61 1-26-3-47-28-47-18 1-26 9-28 27l-52-2c7-38 36-58 82-57s74 22 75 68l1 82c-1 14 12 18 25 15v27c-30 8-71 5-69-32zm-48 3c29 0 43-24 42-57-32 0-66-3-65 30 0 17 8 27 23 27" id="am"/><g id="I"><use transform="matrix(0.08641975308641976,0,0,0.08641975308641976,0,0)" xlink:href="#Y"/><use transform="matrix(0.08641975308641976,0,0,0.08641975308641976,22.38271604938272,0)" xlink:href="#am"/><use transform="matrix(0.08641975308641976,0,0,0.08641975308641976,39.66666666666667,0)" xlink:href="#ah"/><use transform="matrix(0.08641975308641976,0,0,0.08641975308641976,49.95061728395062,0)" xlink:href="#am"/></g><path fill="#333" d="M169-182c-1-43-94-46-97-3 18 66 151 10 154 114 3 95-165 93-204 36-6-8-10-19-12-30l50-8c3 46 112 56 116 5-17-69-150-10-154-114-4-87 153-88 188-35 5 8 8 18 10 28" id="an"/><g id="J"><use transform="matrix(0.08641975308641976,0,0,0.08641975308641976,0,0)" xlink:href="#an"/><use transform="matrix(0.08641975308641976,0,0,0.08641975308641976,20.740740740740744,0)" xlink:href="#ah"/><use transform="matrix(0.08641975308641976,0,0,0.08641975308641976,31.024691358024693,0)" xlink:href="#am"/><use transform="matrix(0.08641975308641976,0,0,0.08641975308641976,48.308641975308646,0)" xlink:href="#ab"/><use transform="matrix(0.08641975308641976,0,0,0.08641975308641976,60.40740740740741,0)" xlink:href="#ah"/></g><path fill="#333" d="M110-194c64 0 96 36 96 99 0 64-35 99-97 99-61 0-95-36-95-99 0-62 34-99 96-99zm-1 164c35 0 45-28 45-65 0-40-10-65-43-65-34 0-45 26-45 65 0 36 10 65 43 65" id="ao"/><path fill="#333" d="M135-194c53 0 70 44 70 98 0 56-19 98-73 100-31 1-45-17-59-34 3 33 2 69 2 105H25l-1-265h48c2 10 0 23 3 31 11-24 29-35 60-35zM114-30c33 0 39-31 40-66 0-38-9-64-40-64-56 0-55 130 0 130" id="ap"/><g id="K"><use transform="matrix(0.08641975308641976,0,0,0.08641975308641976,0,0)" xlink:href="#an"/><use transform="matrix(0.08641975308641976,0,0,0.08641975308641976,20.740740740740744,0)" xlink:href="#ah"/><use transform="matrix(0.08641975308641976,0,0,0.08641975308641976,31.024691358024693,0)" xlink:href="#ao"/><use transform="matrix(0.08641975308641976,0,0,0.08641975308641976,49.95061728395062,0)" xlink:href="#ap"/></g><path fill="#333" d="M230 0l2-204L168 0h-37L68-204 70 0H24v-248h70l56 185 57-185h69V0h-46" id="aq"/><path fill="#333" d="M35-132v-50h50v50H35zM35 0v-49h50V0H35" id="ar"/><g id="L"><use transform="matrix(0.08641975308641976,0,0,0.08641975308641976,0,0)" xlink:href="#aq"/><use transform="matrix(0.08641975308641976,0,0,0.08641975308641976,25.83950617283951,0)" xlink:href="#ar"/></g><g id="M"><use transform="matrix(0.08641975308641976,0,0,0.08641975308641976,0,0)" xlink:href="#an"/><use transform="matrix(0.08641975308641976,0,0,0.08641975308641976,20.740740740740744,0)" xlink:href="#ar"/></g></defs></g></svg>